<svg id="visual" viewBox="0 0 540 960" width="540" height="960" xmlns="http://www.w3.org/2000/svg"
     xmlns:xlink="http://www.w3.org/1999/xlink" version="1.1">
    <rect x="0" y="0" width="540" height="960" fill="#111111"></rect>
    <defs>
        <linearGradient id="grad1_0" x1="0%" y1="100%" x2="100%" y2="0%">
            <stop offset="30%" stop-color="#111111" stop-opacity="1"></stop>
            <stop offset="70%" stop-color="#111111" stop-opacity="1"></stop>
        </linearGradient>
    </defs>
    <defs>
        <linearGradient id="grad2_0" x1="0%" y1="100%" x2="100%" y2="0%">
            <stop offset="30%" stop-color="#111111" stop-opacity="1"></stop>
            <stop offset="70%" stop-color="#111111" stop-opacity="1"></stop>
        </linearGradient>
    </defs>
    <g transform="translate(540, 960)">
        <path d="M-432 0C-414.3 -71.5 -396.7 -142.9 -362.9 -209.5C-329.1 -276.1 -279.2 -337.8 -216 -374.1C-152.8 -410.4 -76.4 -421.2 0 -432L0 0Z"
              fill="#090909"></path>
    </g>
    <g transform="translate(0, 0)">
        <path d="M432 0C421.1 76.2 410.1 152.4 374.1 216C338.1 279.6 277 330.7 210.5 364.6C144 398.5 72 415.3 0 432L0 0Z"
              fill="#090909"></path>
    </g>
</svg>