<svg id="visual" viewBox="0 0 540 960" width="540" height="960" xmlns="http://www.w3.org/2000/svg"
     xmlns:xlink="http://www.w3.org/1999/xlink" version="1.1">
    <rect x="0" y="0" width="540" height="960" fill="#111111"></rect>
    <defs>
        <linearGradient id="grad1_0" x1="0%" y1="100%" x2="100%" y2="0%">
            <stop offset="30%" stop-color="#111111" stop-opacity="1"></stop>
            <stop offset="70%" stop-color="#111111" stop-opacity="1"></stop>
        </linearGradient>
    </defs>
    <defs>
        <linearGradient id="grad2_0" x1="0%" y1="100%" x2="100%" y2="0%">
            <stop offset="30%" stop-color="#111111" stop-opacity="1"></stop>
            <stop offset="70%" stop-color="#111111" stop-opacity="1"></stop>
        </linearGradient>
    </defs>
    <g transform="translate(540, 960)">
        <path d="M-459 0C-446.9 -80.2 -434.9 -160.4 -397.5 -229.5C-360.1 -298.6 -297.5 -356.8 -227 -393.2C-156.5 -429.6 -78.3 -444.3 0 -459L0 0Z"
              fill="#090909"></path>
    </g>
    <g transform="translate(0, 0)">
        <path d="M459 0C447.7 81.4 436.3 162.9 397.5 229.5C358.7 296.1 292.3 347.9 221.5 383.6C150.7 419.4 75.3 439.2 0 459L0 0Z"
              fill="#090909"></path>
    </g>
</svg>