<svg id="visual" viewBox="0 0 960 128" width="960" height="128" xmlns="http://www.w3.org/2000/svg"
     xmlns:xlink="http://www.w3.org/1999/xlink" version="1.1">
    <path d="M0 57L32 55.8C64 54.7 128 52.3 192 59.2C256 66 320 82 384 89.3C448 96.7 512 95.3 576 93.7C640 92 704 90 768 86.2C832 82.3 896 76.7 928 73.8L960 71L960 0L928 0C896 0 832 0 768 0C704 0 640 0 576 0C512 0 448 0 384 0C320 0 256 0 192 0C128 0 64 0 32 0L0 0Z"
          fill="#3f5efb"></path>
    <path d="M0 80L32 73.2C64 66.3 128 52.7 192 48.7C256 44.7 320 50.3 384 52.8C448 55.3 512 54.7 576 60C640 65.3 704 76.7 768 78C832 79.3 896 70.7 928 66.3L960 62L960 0L928 0C896 0 832 0 768 0C704 0 640 0 576 0C512 0 448 0 384 0C320 0 256 0 192 0C128 0 64 0 32 0L0 0Z"
          fill="#ab47dc"></path>
    <path d="M0 51L32 54.8C64 58.7 128 66.3 192 69.7C256 73 320 72 384 65.8C448 59.7 512 48.3 576 45.3C640 42.3 704 47.7 768 52.8C832 58 896 63 928 65.5L960 68L960 0L928 0C896 0 832 0 768 0C704 0 640 0 576 0C512 0 448 0 384 0C320 0 256 0 192 0C128 0 64 0 32 0L0 0Z"
          fill="#dc30b6"></path>
    <path d="M0 39L32 38.7C64 38.3 128 37.7 192 33.8C256 30 320 23 384 23.5C448 24 512 32 576 38.8C640 45.7 704 51.3 768 54.7C832 58 896 59 928 59.5L960 60L960 0L928 0C896 0 832 0 768 0C704 0 640 0 576 0C512 0 448 0 384 0C320 0 256 0 192 0C128 0 64 0 32 0L0 0Z"
          fill="#f52e8f"></path>
    <path d="M0 4L32 5C64 6 128 8 192 12.3C256 16.7 320 23.3 384 22.3C448 21.3 512 12.7 576 8.5C640 4.3 704 4.7 768 6.8C832 9 896 13 928 15L960 17L960 0L928 0C896 0 832 0 768 0C704 0 640 0 576 0C512 0 448 0 384 0C320 0 256 0 192 0C128 0 64 0 32 0L0 0Z"
          fill="#fc466b"></path>
</svg>